<svg xmlns="http://www.w3.org/2000/svg" viewBox="0 0 56 56"><defs><style>.cls-1,.cls-2{fill:#c1272d;}.cls-2,.cls-3{stroke:#fff;stroke-miterlimit:10;}.cls-3{fill:#fff;}</style></defs><title>dial</title><g id="Layer_2" data-name="Layer 2"><g id="Layer_3" data-name="Layer 3"><path class="cls-1" d="M28,0a28,28,0,0,0,0,56V48h-.4A20.4,20.4,0,1,1,48,27.2c0,.13,0-.14,0,0a21.29,21.29,0,0,1-6.38,15.22L47.4,48.2A28,28,0,0,0,28,0Z"/><path class="cls-2" d="M48,27.2H41.2A13.2,13.2,0,0,1,28,40.4V48h-.4A20.4,20.4,0,1,1,48,27.2Z"/><circle class="cls-3" cx="28" cy="27.2" r="13.2"/></g></g></svg>